<?xml version="1.0" standalone="no"?>
<!DOCTYPE svg PUBLIC "-//W3C//DTD SVG 20010904//EN"
 "http://www.w3.org/TR/2001/REC-SVG-20010904/DTD/svg10.dtd">
<svg version="1.0" xmlns="http://www.w3.org/2000/svg"
 width="1200.000000pt" height="1200.000000pt" viewBox="0 0 1200.000000 1200.000000"
 preserveAspectRatio="xMidYMid meet">

<g transform="translate(0.000000,1200.000000) scale(0.100000,-0.100000)"
fill="#000000" stroke="none">
<path d="M5575 8831 c-225 -131 -601 -349 -835 -484 l-425 -246 0 -976 0 -977
390 -225 c959 -554 1288 -743 1295 -743 5 0 368 207 807 461 439 253 817 472
841 485 l42 25 0 974 0 974 -42 25 c-24 13 -402 232 -841 485 -439 254 -804
461 -810 460 -7 0 -196 -108 -422 -238z m1195 -374 l765 -442 0 -890 0 -890
-765 -443 c-439 -253 -771 -440 -780 -437 -13 5 -348 199 -1230 709 l-295 171
0 890 0 890 295 171 c856 495 1236 714 1240 714 3 0 349 -199 770 -443z"/>
<path d="M5546 7907 c-13 -10 -16 -20 -12 -35 6 -19 15 -22 56 -22 49 0 49 0
55 -37 4 -21 9 -51 12 -68 10 -57 45 -136 79 -180 l34 -45 -165 0 c-150 0
-165 -2 -174 -19 -16 -29 7 -50 59 -53 l45 -3 8 -70 c13 -124 60 -236 129
-311 l41 -44 -200 0 c-211 0 -239 -6 -231 -46 3 -16 14 -20 73 -24 l70 -5 6
-72 c10 -106 26 -168 69 -258 65 -136 157 -220 288 -264 79 -27 314 -30 407
-6 206 54 349 254 373 524 l7 76 70 5 c59 4 70 8 73 24 8 40 -20 46 -231 46
l-200 0 41 44 c69 75 116 187 129 311 l8 70 45 3 c52 3 75 24 59 53 -9 17 -24
19 -174 19 l-165 0 34 45 c37 48 70 127 81 191 17 101 12 94 65 94 41 0 50 3
56 22 14 47 2 48 -466 48 -347 0 -440 -3 -454 -13z m734 -95 c0 -92 -59 -209
-131 -262 -41 -29 -46 -30 -149 -30 -102 0 -109 1 -147 29 -47 34 -75 71 -103
136 -20 48 -41 151 -32 160 3 3 131 5 284 5 l278 0 0 -38z m110 -397 c0 -92
-52 -232 -111 -300 -19 -21 -54 -51 -78 -67 -44 -28 -47 -28 -201 -28 -154 0
-157 0 -201 28 -24 16 -59 46 -78 67 -59 68 -111 208 -111 300 l0 35 390 0
390 0 0 -35z m106 -540 c-19 -211 -117 -373 -266 -444 -53 -25 -62 -26 -230
-26 -173 0 -176 0 -235 29 -147 72 -242 233 -261 441 l-7 75 503 0 503 0 -7
-75z"/>
<path d="M6180 3700 l0 -630 75 0 75 0 0 596 c0 328 2 599 5 602 12 12 4 42
-14 52 -11 5 -47 10 -80 10 l-61 0 0 -630z"/>
<path d="M7948 4313 c-2 -10 -4 -129 -3 -265 l0 -248 -62 0 -63 0 0 200 c0
140 -3 200 -11 200 -7 0 -5 10 5 25 20 30 20 30 0 49 -11 11 -35 16 -80 16
l-64 0 0 -575 0 -576 73 3 72 3 3 258 2 258 63 -3 62 -3 0 -292 0 -293 78 0
78 0 -1 617 c-1 421 -5 621 -12 630 -6 8 -34 13 -73 13 -51 0 -63 -3 -67 -17z"/>
<path d="M9327 4324 c-4 -4 -7 -166 -7 -361 l0 -353 -380 0 -380 0 0 -70 0
-70 380 0 c373 0 380 0 380 -20 0 -20 -7 -20 -380 -20 l-380 0 0 -165 0 -165
475 0 475 0 0 70 0 70 -400 0 c-393 0 -400 0 -400 20 0 20 7 20 380 20 l380 0
1 163 c0 89 0 222 -1 295 l-1 132 101 0 100 0 0 75 0 75 -99 0 -100 0 -3 118
c-2 65 1 125 7 135 19 34 -6 52 -76 55 -36 2 -68 0 -72 -4z"/>
<path d="M3980 4030 l0 -250 463 2 462 3 0 70 0 70 -388 3 -388 2 3 103 3 102
385 5 385 5 0 68 1 67 -463 0 -463 0 0 -250z"/>
<path d="M5619 4239 c-121 -13 -216 -75 -265 -174 -24 -50 -26 -64 -22 -139 4
-69 9 -92 35 -137 61 -109 183 -168 325 -156 149 12 223 56 277 160 30 59 34
75 34 149 0 66 -4 92 -21 125 -68 132 -190 189 -363 172z m159 -168 c50 -26
72 -64 72 -128 0 -95 -56 -156 -156 -169 -203 -25 -299 223 -120 308 53 24
144 20 204 -11z"/>
<path d="M8460 3944 l0 -296 148 7 c271 11 633 57 665 84 8 6 10 31 7 73 -6
74 11 71 -180 35 -143 -27 -324 -47 -428 -47 l-63 0 3 148 3 147 243 1 c133 1
247 2 252 3 6 0 10 32 10 71 l0 70 -330 0 -330 0 0 -296z"/>
<path d="M6970 3795 l0 -415 285 0 286 0 -1 383 c-1 210 2 390 5 400 13 33
-13 47 -86 47 l-69 0 0 -140 0 -140 -134 0 -135 0 -3 106 c-2 58 1 112 5 120
5 8 5 23 2 34 -6 18 -15 20 -81 20 l-74 0 0 -415z m420 -145 l0 -131 -132 3
-133 3 -3 128 -3 127 136 0 135 0 0 -130z"/>
<path d="M2572 3918 l3 -283 448 -3 447 -2 0 285 0 285 -450 0 -450 0 2 -282z
m748 -3 l0 -145 -297 2 -298 3 -3 143 -3 142 301 0 300 0 0 -145z"/>
<path d="M3830 3610 l0 -70 265 0 265 0 0 -235 0 -235 75 0 75 0 0 235 0 235
260 0 260 0 0 70 0 70 -600 0 -600 0 0 -70z"/>
<path d="M2950 3485 l0 -125 -265 0 -265 0 0 -75 0 -75 600 0 600 0 0 75 0 75
-260 0 -260 0 0 85 c0 51 -4 85 -10 85 -6 0 -3 11 6 25 26 40 5 55 -77 55
l-69 0 0 -125z"/>
<path d="M5670 3512 c-245 -19 -446 -36 -448 -37 -10 -9 34 -127 53 -145 22
-21 25 -21 77 -6 44 13 306 39 726 72 l82 7 0 73 c0 70 -1 74 -22 73 -13 -1
-223 -17 -468 -37z"/>
</g>
</svg>
